<?xml version="1.0" standalone="no"?>
<!DOCTYPE svg PUBLIC "-//W3C//DTD SVG 1.1//EN" "http://www.w3.org/Graphics/SVG/1.1/DTD/svg11.dtd" >
<svg xmlns="http://www.w3.org/2000/svg">
<metadata></metadata>
<defs>
<font id="rbno2.1ahairline" horiz-adv-x="796" >
<font-face units-per-em="2048" ascent="1638" descent="-410" />
<missing-glyph horiz-adv-x="368" />
<glyph unicode="&#xfb01;" horiz-adv-x="602" d="M33 1073v12h90v228q0 62 22 91.5t78 29.5h109v-13h-109q-50 0 -68 -26t-18 -82v-228h340v-1085h-14v1073h-326v-1073h-14v1073h-90z" />
<glyph unicode="&#xfb02;" horiz-adv-x="598" d="M33 1073v12h90v228q0 62 22 91.5t78 29.5h252v-1434h-14v1421h-238q-50 0 -68 -26t-18 -82v-228h144v-12h-144v-1073h-14v1073h-90z" />
<glyph horiz-adv-x="2048" />
<glyph horiz-adv-x="2048" />
<glyph unicode="&#xd;" horiz-adv-x="2048" />
<glyph unicode=" "  horiz-adv-x="368" />
<glyph unicode="&#x09;" horiz-adv-x="368" />
<glyph unicode="&#xa0;" horiz-adv-x="368" />
<glyph unicode="!" horiz-adv-x="344" d="M164 0v164h16v-164h-16zM164 1085v349h16v-349l-4 -614h-8z" />
<glyph unicode="&#x22;" horiz-adv-x="454" d="M127 881v553h16v-226l-12 -327h-4zM311 881v553h17v-226l-13 -327h-4z" />
<glyph unicode="#" horiz-adv-x="1075" d="M78 379l2 12h194l88 641h-192l2 12h193l55 390h12l-55 -390h379l55 390h12l-55 -390h219l-2 -12h-219l-90 -641h219l-2 -12h-219l-51 -379h-13l54 379h-381l-52 -379h-12l53 379h-194zM285 391h381l88 641h-379z" />
<glyph unicode="$" horiz-adv-x="731" d="M96 223v250h15v-250q0 -67 14.5 -110.5t45 -64.5t64 -28.5t84.5 -7.5h93q51 0 85 7.5t64 28.5t45 64.5t15 110.5v332q0 26 -4.5 47.5t-9.5 37t-18 29.5t-21 22t-27.5 18.5t-28.5 14t-33.5 13.5t-32.5 13l-163 55q-7 3 -29.5 11t-30.5 11.5t-27.5 12.5t-27.5 16t-22 18.5 t-20.5 24.5t-14 30t-10.5 38.5t-3 46.5v196q0 71 16.5 117.5t49.5 69t69 30t89 7.5h28v143h17v-143h36q53 0 89 -7.5t69 -30t49.5 -69t16.5 -117.5v-249h-15v249q0 67 -15 110.5t-45 64.5t-64 28.5t-85 7.5h-81q-51 0 -85 -7.5t-64 -28.5t-45 -64.5t-15 -110.5v-196 q0 -23 2.5 -42.5t9.5 -35.5t12.5 -27.5t19 -22.5t20.5 -17.5t25.5 -15.5t26 -12.5t29.5 -12t29 -11.5l164 -55q7 -3 33 -12.5t34.5 -13t29.5 -14.5t29 -19t22.5 -23.5t20 -32t10.5 -40.5t5 -52v-332q0 -71 -16.5 -117.5t-49.5 -68.5t-68.5 -29.5t-88.5 -7.5h-45v-184h-17 v184h-31q-53 0 -88.5 7.5t-68.5 29.5t-49.5 68.5t-16.5 117.5z" />
<glyph unicode="%" horiz-adv-x="1183" d="M123 858v434q0 82 35.5 112t105.5 30h103q70 0 105.5 -30t35.5 -112v-434q0 -82 -35.5 -111.5t-105.5 -29.5h-103q-70 0 -105.5 29.5t-35.5 111.5zM137 858q0 -76 32 -102.5t95 -26.5h103q63 0 95 26.5t32 102.5v434q0 76 -32 102.5t-95 26.5h-103q-63 0 -95 -26.5 t-32 -102.5v-434zM256 0l631 1434h16l-631 -1434h-16zM676 141v434q0 82 35.5 112t105.5 30h103q70 0 105.5 -30t35.5 -112v-434q0 -82 -35.5 -111.5t-105.5 -29.5h-103q-70 0 -105.5 29.5t-35.5 111.5zM690 141q0 -76 32 -102.5t95 -26.5h103q63 0 95 26.5t32 102.5v434 q0 76 -32.5 103t-94.5 27h-103q-62 0 -94.5 -27t-32.5 -103v-434z" />
<glyph unicode="&#x26;" horiz-adv-x="913" d="M127 203v336q0 100 42.5 145t119.5 53q-111 30 -111 193v198q0 118 52.5 160.5t150.5 42.5h194v-12h-194q-43 0 -74 -7.5t-58.5 -27t-41.5 -58.5t-14 -98v-198q0 -59 14 -98t41.5 -58.5t58.5 -27t74 -7.5h522v-6l-272 -6v-727h-301q-98 0 -150.5 42.5t-52.5 160.5z M141 203q0 -59 14 -98t42 -58.5t59 -27t74 -7.5h286v715h-276q-44 0 -76 -7t-62 -26t-45.5 -58t-15.5 -97v-336z" />
<glyph unicode="'" horiz-adv-x="270" d="M127 881v553h16v-226l-12 -327h-4z" />
<glyph unicode="(" horiz-adv-x="366" d="M127 -18v1249q0 95 33 149q9 15 32.5 43.5t42.5 50.5l19 21l10 -8q-72 -86 -90 -113q-33 -51 -33 -143v-1249q0 -93 33 -144q8 -12 30.5 -40t41.5 -50l18 -22l-10 -9q-74 82 -94 115q-33 54 -33 150z" />
<glyph unicode=")" horiz-adv-x="366" d="M102 -274q73 85 91 112q32 50 32 144v1249q0 93 -32 143q-8 12 -30.5 40.5t-41.5 50.5l-19 22l11 8q74 -82 94 -115q33 -54 33 -149v-1249q0 -96 -33 -150q-9 -15 -32.5 -43.5t-42.5 -50.5l-19 -21z" />
<glyph unicode="*" horiz-adv-x="602" d="M82 1028l82 57l119 78l4 -6l-113 -86l-84 -57zM82 1315l8 14l84 -57l113 -86l-4 -6l-119 77zM293 909v101l4 141h8l4 -141v-101h-16zM293 1333v101h16v-101l-4 -141h-8zM315 1157l4 6l119 -78l82 -57l-8 -14l-84 57zM315 1186l113 86l84 57l8 -14l-82 -58l-119 -77z" />
<glyph unicode="+" horiz-adv-x="614" d="M63 727v14h236v246h14v-246h238v-14h-238v-248h-14v248h-236z" />
<glyph unicode="," horiz-adv-x="272" d="M78 -219q57 82 57 219h-10v143h20v-143q0 -142 -61 -223z" />
<glyph unicode="-" horiz-adv-x="557" d="M66 604v14h426v-14h-426z" />
<glyph unicode="." horiz-adv-x="348" d="M164 0v143h20v-143h-20z" />
<glyph unicode="/" horiz-adv-x="471" d="M86 -86l242 1597h16l-242 -1597h-16z" />
<glyph unicode="0" d="M119 223v987q0 71 16.5 117.5t49.5 69t68.5 30t88.5 7.5h113q53 0 88.5 -7.5t68.5 -30t49.5 -69t16.5 -117.5v-987q0 -71 -16.5 -117.5t-49.5 -68.5t-68.5 -29.5t-88.5 -7.5h-113q-53 0 -88.5 7.5t-68.5 29.5t-49.5 68.5t-16.5 117.5zM133 223q0 -67 15 -110.5t45 -64.5 t64 -28.5t85 -7.5h113q51 0 85 7.5t64 28.5t45 64.5t15 110.5v987q0 67 -15 110.5t-45 64.5t-64 28.5t-85 7.5h-113q-51 0 -85 -7.5t-64 -28.5t-45 -64.5t-15 -110.5v-987z" />
<glyph unicode="1" horiz-adv-x="526" d="M12 1300l258 134h17v-1422h211v-12h-437v12h211v1407l-256 -129z" />
<glyph unicode="2" horiz-adv-x="677" d="M84 0v362q0 33 2.5 60.5t10 51.5t13.5 41.5t20 35.5t21.5 28.5t27 26t27 21.5t30.5 22t30 21l150 104q83 57 126.5 125t43.5 166v145q0 67 -15 110.5t-45 64.5t-64 28.5t-85 7.5h-62q-51 0 -85 -7.5t-64 -28.5t-45 -64.5t-15 -110.5v-147h-14v147q0 71 16.5 117.5 t49.5 69t68.5 30t88.5 7.5h62q53 0 88.5 -7.5t68.5 -30t49.5 -69t16.5 -117.5v-145q0 -53 -12.5 -98t-27.5 -73.5t-45 -58t-46 -42t-49 -35.5l-150 -103l-31.5 -22.5t-32.5 -23.5t-28 -24t-27 -29.5t-20.5 -33.5t-18.5 -43.5t-9.5 -51.5t-4.5 -65v-350h514v-12h-528z" />
<glyph unicode="3" horiz-adv-x="661" d="M92 223v127h14v-127q0 -67 15 -110.5t45 -64.5t64 -28.5t85 -7.5h41q51 0 85 7.5t64 28.5t45 64.5t15 110.5v348q0 95 -37.5 131t-109.5 39h-223v13h223q72 2 109.5 37t37.5 131v288q0 67 -15 110.5t-45 64.5t-64 28.5t-85 7.5h-41q-51 0 -85 -7.5t-64 -28.5t-45 -64.5 t-15 -110.5v-106h-14v106q0 71 16.5 117.5t49.5 69t68.5 30t88.5 7.5h41q53 0 89 -7.5t69 -30t49.5 -69t16.5 -117.5v-288q0 -84 -28.5 -124t-82.5 -50q111 -24 111 -177v-348q0 -71 -16.5 -117.5t-49.5 -68.5t-69 -29.5t-89 -7.5h-41q-53 0 -88.5 7.5t-68.5 29.5 t-49.5 68.5t-16.5 117.5z" />
<glyph unicode="4" horiz-adv-x="737" d="M4 356v13l410 1065h96v-1065h199v-13h-199v-356h-14v356h-492zM20 369h476v1052h-72z" />
<glyph unicode="5" horiz-adv-x="694" d="M92 223v127h14v-127q0 -67 15 -110.5t45 -64.5t64 -28.5t85 -7.5h82q51 0 85 7.5t64 28.5t45 64.5t15 110.5v410q0 54 -12.5 89.5t-37 52t-51.5 22.5t-67 6h-319v631h459v-13h-445v-606h305q43 0 73 -6.5t57 -25t40 -56t13 -94.5v-410q0 -71 -16.5 -117.5t-49.5 -68.5 t-69 -29.5t-89 -7.5h-82q-53 0 -88.5 7.5t-68.5 29.5t-49.5 68.5t-16.5 117.5z" />
<glyph unicode="6" horiz-adv-x="688" d="M92 223v987q0 71 16.5 117.5t49.5 69t68.5 30t88.5 7.5h64q53 0 88.5 -7.5t68.5 -30t49.5 -69t16.5 -117.5v-147h-14v147q0 69 -15.5 113t-47 64.5t-64 27t-82.5 6.5h-64q-48 0 -82 -7.5t-65 -28.5t-46.5 -65t-15.5 -110v-501q19 50 60.5 68t107.5 18h123q53 0 89 -7.5 t69 -30t49.5 -69t16.5 -117.5v-348q0 -71 -16.5 -117.5t-49.5 -68.5t-69 -29.5t-89 -7.5h-82q-53 0 -88.5 7.5t-68.5 29.5t-49.5 68.5t-16.5 117.5zM106 223q0 -66 15.5 -110t46.5 -65t65 -28.5t82 -7.5h82q48 0 82 7.5t65 28.5t46.5 65t15.5 110v348q0 69 -15.5 113 t-47 64.5t-64 27t-82.5 6.5h-123q-39 0 -65.5 -5.5t-51.5 -21.5t-37.5 -49t-13.5 -83v-400z" />
<glyph unicode="7" horiz-adv-x="624" d="M61 1421v13h508v-27l-467 -1407h-18l469 1407v14h-492z" />
<glyph unicode="8" horiz-adv-x="663" d="M68 203v360q0 107 37 155t106 60q-65 15 -99 64t-34 153v205q0 71 16.5 119t49 72t69.5 33.5t88 9.5h61q51 0 88.5 -9.5t70 -33.5t49 -72t16.5 -119v-205q0 -104 -35 -153t-100 -64q71 -11 108 -59.5t37 -155.5v-360q0 -57 -14.5 -96.5t-34.5 -60t-56.5 -31.5t-64 -13 t-74.5 -2h-41q-33 0 -53.5 1t-49 5t-46 12t-37.5 22.5t-31 36t-18.5 53.5t-7.5 73zM82 203q0 -53 14 -90.5t33 -56.5t53 -29.5t60 -12.5t69 -2h41q43 0 69 2t60.5 12.5t53.5 29.5t33 56.5t14 90.5v360q0 67 -14.5 110t-45.5 64t-64.5 28t-84.5 7h-82q-51 0 -84.5 -7 t-64.5 -28t-45.5 -64t-14.5 -110v-360zM92 995q0 -120 46 -164t136 -47h99q48 1 80.5 9t61 29.5t42.5 64.5t14 108v205q0 67 -15 112t-45 68t-65 32t-84 9h-61q-49 0 -84 -9t-65 -32t-45 -68t-15 -112v-205z" />
<glyph unicode="9" horiz-adv-x="688" d="M68 821v389q0 71 16.5 117.5t49.5 69t68.5 30t88.5 7.5h82q53 0 88.5 -7.5t68.5 -30t49.5 -69t16.5 -117.5v-987q0 -71 -16.5 -117.5t-49.5 -68.5t-68.5 -29.5t-88.5 -7.5h-64q-53 0 -88.5 7.5t-68.5 29.5t-49.5 68.5t-16.5 117.5v148h14v-148q0 -67 15 -110.5t45 -64.5 t64 -28.5t85 -7.5h64q51 0 85 7.5t64 28.5t45 64.5t15 110.5v459q-20 -50 -60.5 -67t-107.5 -17h-123q-53 0 -88.5 7.5t-68.5 29.5t-49.5 68.5t-16.5 117.5zM82 821q0 -66 15.5 -110t46.5 -65t65 -28.5t82 -7.5h123q40 0 67 6t51.5 22.5t37 52t12.5 89.5v430q0 66 -15.5 110 t-46.5 65t-65 28.5t-82 7.5h-82q-48 0 -82 -7.5t-65 -28.5t-46.5 -65t-15.5 -110v-389z" />
<glyph unicode=":" horiz-adv-x="270" d="M125 0v143h20v-143h-20zM125 942v143h20v-143h-20z" />
<glyph unicode=";" horiz-adv-x="272" d="M78 -219q57 82 57 219h-10v143h20v-143q0 -142 -61 -223zM125 942v143h20v-143h-20z" />
<glyph unicode="&#x3c;" horiz-adv-x="614" d="M66 725v16l483 287v-16l-471 -279l471 -278v-17z" />
<glyph unicode="=" horiz-adv-x="614" d="M66 555v14h487v-14h-487zM66 883v14h487v-14h-487z" />
<glyph unicode="&#x3e;" horiz-adv-x="614" d="M66 438v17l471 278l-471 279v16l483 -287v-16z" />
<glyph unicode="?" horiz-adv-x="702" d="M92 1022v188q0 71 16.5 117.5t49.5 69t68.5 30t88.5 7.5h82q53 0 89 -7.5t69 -30t49.5 -69t16.5 -117.5v-145q0 -42 -9.5 -77.5t-21 -58t-34.5 -45.5t-37 -33t-42 -28t-37 -24q-33 -23 -45 -32t-35 -31.5t-32 -42t-17 -52.5t-8 -74v-159h-14v159q0 37 4 66t16.5 52.5 t21 38t32 33.5t33.5 26.5t40 27.5q41 28 58.5 41t44.5 38t38 46.5t20 54.5t9 74v145q0 67 -15 110.5t-45 64.5t-64 28.5t-85 7.5h-82q-51 0 -85 -7.5t-64 -28.5t-45 -64.5t-15 -110.5v-188h-14zM287 0v143h20v-143h-20z" />
<glyph unicode="@" horiz-adv-x="1046" d="M88 109v874q0 65 10 109.5t27.5 71t49.5 40.5t67 18.5t90 4.5h383q69 0 109 -7.5t73.5 -32t47 -74t13.5 -130.5v-752q0 -78 -23 -109.5t-97 -31.5q-68 0 -93 24.5t-28 84.5q-133 -117 -219 -117h-56q-58 0 -99.5 41t-41.5 100v312q0 59 41.5 100t99.5 41h275v166 q0 54 -12.5 89.5t-37 52t-51.5 22.5t-67 6h-45q-40 0 -67 -6t-51.5 -22.5t-37 -52t-12.5 -89.5v-86h-14v86q0 57 13 94.5t39.5 56t56.5 25t73 6.5h45q43 0 73 -6.5t56.5 -25t39.5 -56t13 -94.5v-611q0 -72 19.5 -100.5t87.5 -28.5t87 28t19 101v752q0 78 -13.5 125t-46 70 t-69 29.5t-100.5 6.5h-383q-51 0 -82.5 -3.5t-62.5 -17t-48 -38t-27 -67.5t-10 -105v-874q0 -62 10 -105t27 -68t48 -38t63 -17t82 -4h485v-12h-485q-55 0 -90 4.5t-67 18.5t-49.5 40.5t-27.5 71t-10 109.5zM315 223q0 -53 37.5 -91t89.5 -38h56q12 0 25 2.5t24 6t25 10.5 t23.5 12t24.5 15l22.5 15t22 17t19 15.5t18.5 15t15 12.5v449h-275q-52 0 -89.5 -38t-37.5 -91v-312z" />
<glyph unicode="A" horiz-adv-x="710" d="M10 0l287 1434h117l286 -1434h-14l-80 401h-502l-79 -401h-15zM106 414h498l-203 1007h-92z" />
<glyph unicode="B" horiz-adv-x="745" d="M127 0v1434h293q98 0 150.5 -42.5t52.5 -160.5v-283q0 -93 -33.5 -138t-95.5 -58q66 -13 102.5 -58t36.5 -137v-354q0 -118 -52.5 -160.5t-150.5 -42.5h-303zM141 12h289q43 0 74 7.5t58.5 27t41.5 58.5t14 98v354q0 58 -15.5 97t-45.5 58t-61.5 26t-75.5 7h-279v-733z M141 758h293q83 2 128.5 42.5t45.5 147.5v283q0 59 -14 98t-41.5 58t-58.5 26.5t-74 7.5h-279v-663z" />
<glyph unicode="C" horiz-adv-x="763" d="M119 223v987q0 71 16.5 117.5t49.5 69t68.5 30t88.5 7.5h102q53 0 89 -7.5t69 -30t49.5 -69t16.5 -117.5v-249h-15v249q0 67 -15 110.5t-45 64.5t-64 28.5t-85 7.5h-102q-51 0 -85 -7.5t-64 -28.5t-45 -64.5t-15 -110.5v-987q0 -67 15 -110.5t45 -64.5t64 -28.5t85 -7.5 h102q51 0 85 7.5t64 28.5t45 64.5t15 110.5v291h15v-291q0 -71 -16.5 -117.5t-49.5 -68.5t-69 -29.5t-89 -7.5h-102q-53 0 -88.5 7.5t-68.5 29.5t-49.5 68.5t-16.5 117.5z" />
<glyph unicode="D" horiz-adv-x="761" d="M127 0v1434h313q98 0 150.5 -42.5t52.5 -160.5v-1028q0 -118 -52.5 -160.5t-150.5 -42.5h-313zM141 12h299q43 0 74 7.5t59 27t42 58.5t14 98v1028q0 59 -14 98t-42 58t-59 26.5t-74 7.5h-297z" />
<glyph unicode="E" horiz-adv-x="661" d="M127 0v1434h463v-13h-449v-682h428v-12h-428v-715h449v-12h-463z" />
<glyph unicode="F" horiz-adv-x="620" d="M127 0v1434h453v-13h-439v-690h418v-12h-418v-719h-14z" />
<glyph unicode="G" horiz-adv-x="759" d="M119 223v987q0 71 16.5 117.5t49.5 69t68.5 30t88.5 7.5h92q53 0 88.5 -7.5t68.5 -30t49.5 -69t16.5 -117.5v-188h-14v188q0 66 -15.5 110t-46.5 65t-65 28.5t-82 7.5h-92q-48 0 -82 -7.5t-65 -28.5t-46.5 -65t-15.5 -110v-987q0 -67 15 -110.5t45 -64.5t64 -28.5 t85 -7.5h92q51 0 85 7.5t64 28.5t45 64.5t15 110.5v455h-258v12h272v-467q0 -71 -16.5 -117.5t-49.5 -68.5t-68.5 -29.5t-88.5 -7.5h-92q-53 0 -88.5 7.5t-68.5 29.5t-49.5 68.5t-16.5 117.5z" />
<glyph unicode="H" horiz-adv-x="794" d="M127 0v1434h14v-693h512v693h15v-1434h-15v729h-512v-729h-14z" />
<glyph unicode="I" horiz-adv-x="270" d="M127 0v1434h14v-1434h-14z" />
<glyph unicode="J" horiz-adv-x="448" d="M20 0v12h103q43 0 74 7.5t58.5 27t41.5 58.5t14 98v1233h15v-1233q0 -118 -52.5 -160.5t-150.5 -42.5h-103z" />
<glyph unicode="K" horiz-adv-x="757" d="M127 0v1434h14v-707h256l283 707h16l-284 -713l325 -721h-16l-322 715h-258v-715h-14z" />
<glyph unicode="L" horiz-adv-x="589" d="M127 0v1434h14v-1422h418v-12h-432z" />
<glyph unicode="M" horiz-adv-x="1036" d="M127 0v1434h61l318 -1422h24l320 1422h59v-1434h-14v1421h-35l-317 -1421h-47l-320 1419h-35v-1419h-14z" />
<glyph unicode="N" horiz-adv-x="837" d="M127 0v1434h61l480 -1420h28v1420h15v-1434h-52l-481 1421h-37v-1421h-14z" />
<glyph unicode="O" d="M119 223v987q0 71 16.5 117.5t49.5 69t68.5 30t88.5 7.5h113q53 0 88.5 -7.5t68.5 -30t49.5 -69t16.5 -117.5v-987q0 -71 -16.5 -117.5t-49.5 -68.5t-68.5 -29.5t-88.5 -7.5h-113q-53 0 -88.5 7.5t-68.5 29.5t-49.5 68.5t-16.5 117.5zM133 223q0 -67 15 -110.5t45 -64.5 t64 -28.5t85 -7.5h113q51 0 85 7.5t64 28.5t45 64.5t15 110.5v987q0 67 -15 110.5t-45 64.5t-64 28.5t-85 7.5h-113q-51 0 -85 -7.5t-64 -28.5t-45 -64.5t-15 -110.5v-987z" />
<glyph unicode="P" horiz-adv-x="663" d="M127 0v1434h303q90 0 136 -37t46 -146v-516q0 -57 -13 -94.5t-39.5 -56t-56.5 -25t-73 -6.5h-289v-553h-14zM141 565h289q40 0 67 6t51.5 22.5t37 52t12.5 89.5v516q0 54 -12.5 89.5t-37 52t-51.5 22.5t-67 6h-289v-856z" />
<glyph unicode="Q" d="M119 223v987q0 71 16.5 117.5t49.5 69t68.5 30t88.5 7.5h113q53 0 88.5 -7.5t68.5 -30t49.5 -69t16.5 -117.5v-987q0 -167 -107 -209l107 -172h-16l-105 168q-39 -10 -102 -10h-113q-53 0 -88.5 7.5t-68.5 29.5t-49.5 68.5t-16.5 117.5zM133 223q0 -67 15 -110.5 t45 -64.5t64 -28.5t85 -7.5h113q51 0 85 7.5t64 28.5t45 64.5t15 110.5v987q0 67 -15 110.5t-45 64.5t-64 28.5t-85 7.5h-113q-51 0 -85 -7.5t-64 -28.5t-45 -64.5t-15 -110.5v-987z" />
<glyph unicode="R" horiz-adv-x="706" d="M127 0v1434h324q90 0 136 -37t46 -146v-362q0 -91 -32.5 -130.5t-94.5 -47.5q127 -31 127 -193v-518h-15v518q0 104 -47 145t-129 44h-301v-707h-14zM141 719h310q40 0 66.5 6t51.5 22.5t37 52t12 89.5v362q0 54 -12 89.5t-37 52t-51.5 22.5t-66.5 6h-310v-702z" />
<glyph unicode="S" horiz-adv-x="731" d="M96 223v250h15v-250q0 -67 14.5 -110.5t45 -64.5t64 -28.5t84.5 -7.5h93q51 0 85 7.5t64 28.5t45 64.5t15 110.5v332q0 26 -4.5 47.5t-9.5 37t-18 29.5t-21 22t-27.5 18.5t-28.5 14t-33.5 13.5t-32.5 13l-163 55q-7 3 -29.5 11t-30.5 11.5t-27.5 12.5t-27.5 16t-22 18.5 t-20.5 24.5t-14 30t-10.5 38.5t-3 46.5v196q0 71 16.5 117.5t49.5 69t69 30t89 7.5h81q53 0 89 -7.5t69 -30t49.5 -69t16.5 -117.5v-249h-15v249q0 67 -15 110.5t-45 64.5t-64 28.5t-85 7.5h-81q-51 0 -85 -7.5t-64 -28.5t-45 -64.5t-15 -110.5v-196q0 -23 2.5 -42.5 t9.5 -35.5t12.5 -27.5t19 -22.5t20.5 -17.5t25.5 -15.5t26 -12.5t29.5 -12t29 -11.5l164 -55q7 -3 33 -12.5t34.5 -13t29.5 -14.5t29 -19t22.5 -23.5t20 -32t10.5 -40.5t5 -52v-332q0 -71 -16.5 -117.5t-49.5 -68.5t-68.5 -29.5t-88.5 -7.5h-93q-53 0 -88.5 7.5t-68.5 29.5 t-49.5 68.5t-16.5 117.5z" />
<glyph unicode="T" horiz-adv-x="684" d="M20 1421v13h644v-13h-316v-1421h-14v1421h-314z" />
<glyph unicode="U" d="M119 223v1211h14v-1211q0 -67 15 -110.5t45 -64.5t64 -28.5t85 -7.5h113q51 0 85 7.5t64 28.5t45 64.5t15 110.5v1211h14v-1211q0 -71 -16.5 -117.5t-49.5 -68.5t-68.5 -29.5t-88.5 -7.5h-113q-53 0 -88.5 7.5t-68.5 29.5t-49.5 68.5t-16.5 117.5z" />
<glyph unicode="V" horiz-adv-x="833" d="M51 1434h15l305 -1422h92l305 1422h14l-307 -1434h-117z" />
<glyph unicode="W" horiz-adv-x="1091" d="M31 1434h14l203 -1422h90l184 1422h47l183 -1422h90l205 1422h14l-205 -1434h-117l-184 1419h-20l-183 -1419h-116z" />
<glyph unicode="X" horiz-adv-x="643" d="M25 0l286 739l-266 695h14l263 -684l262 684h14l-266 -695l286 -739h-14l-282 729l-283 -729h-14z" />
<glyph unicode="Y" horiz-adv-x="720" d="M25 1434h16l317 -801l320 801h16l-327 -820v-614h-15v614z" />
<glyph unicode="Z" horiz-adv-x="622" d="M51 0v12l504 1409h-504v13h520v-13l-505 -1409h505v-12h-520z" />
<glyph unicode="[" horiz-adv-x="434" d="M127 -205v1700h289v-12h-275v-1676h275v-12h-289z" />
<glyph unicode="\" horiz-adv-x="471" d="M127 1511h16l242 -1597h-16z" />
<glyph unicode="]" horiz-adv-x="434" d="M18 -193h275v1676h-275v12h289v-1700h-289v12z" />
<glyph unicode="^" horiz-adv-x="819" d="M156 1012l245 422h17l246 -422h-17l-237 407l-238 -407h-16z" />
<glyph unicode="_" horiz-adv-x="749" d="M-4 -123h758v-12h-758v12z" />
<glyph unicode="`" horiz-adv-x="1024" d="M440 1331h25l115 -133h-13z" />
<glyph unicode="a" horiz-adv-x="690" d="M96 141v394q0 58 41.5 99.5t100.5 41.5h315v227q0 54 -12.5 89.5t-37 52t-51.5 22.5t-67 6h-86q-40 0 -67 -6t-51.5 -22.5t-37 -52t-12.5 -89.5v-86h-14v86q0 57 13 94.5t39.5 56t56.5 25t73 6.5h86q43 0 73 -6.5t56.5 -25t39.5 -56t13 -94.5v-903h-329 q-59 0 -100.5 41.5t-41.5 99.5zM111 141q0 -53 37.5 -91t89.5 -38h315v652h-315q-52 0 -89.5 -38t-37.5 -91v-394z" />
<glyph unicode="b" horiz-adv-x="727" d="M123 0v1454h14v-369h332q59 0 100 -41.5t41 -99.5v-803q0 -59 -41 -100t-100 -41h-346zM137 12h332q52 0 89.5 38t37.5 91v803q0 53 -37.5 91t-89.5 38h-332v-1061z" />
<glyph unicode="c" horiz-adv-x="690" d="M117 182v721q0 57 13 94.5t39.5 56t56.5 25t73 6.5h113q43 0 73 -6.5t56.5 -25t39.5 -56t13 -94.5v-168h-14v168q0 54 -12.5 89.5t-37 52t-51.5 22.5t-67 6h-113q-40 0 -67 -6t-51.5 -22.5t-37 -52t-12.5 -89.5v-721q0 -54 12.5 -89.5t37 -52t51.5 -22.5t67 -6h113 q40 0 67 6t51.5 22.5t37 52t12.5 89.5v230h14v-230q0 -57 -13 -94.5t-39.5 -56t-56.5 -25t-73 -6.5h-113q-43 0 -73 6.5t-56.5 25t-39.5 56t-13 94.5z" />
<glyph unicode="d" horiz-adv-x="727" d="M117 141v803q0 58 41.5 99.5t99.5 41.5h332v369h14v-1454h-346q-58 0 -99.5 41t-41.5 100zM131 141q0 -53 37.5 -91t89.5 -38h332v1061h-332q-52 0 -89.5 -38t-37.5 -91v-803z" />
<glyph unicode="e" horiz-adv-x="710" d="M117 182v721q0 57 13 94.5t39.5 56t56.5 25t73 6.5h113q43 0 73 -6.5t56.5 -25t39.5 -56t13 -94.5v-362h-463v-359q0 -54 12.5 -89.5t37 -52t51.5 -22.5t67 -6h115q40 0 67 6t51.5 22.5t37 52t12.5 89.5v127h14v-127q0 -57 -13 -94.5t-39.5 -56t-56.5 -25t-73 -6.5h-115 q-43 0 -73 6.5t-56.5 25t-39.5 56t-13 94.5zM131 553h449v350q0 54 -12.5 89.5t-37 52t-51.5 22.5t-67 6h-113q-40 0 -67 -6t-51.5 -22.5t-37 -52t-12.5 -89.5v-350z" />
<glyph unicode="f" horiz-adv-x="337" d="M33 1073v12h90v228q0 62 22 91.5t78 29.5h109v-13h-109q-50 0 -68 -26t-18 -82v-228h185v-12h-185v-1073h-14v1073h-90z" />
<glyph unicode="g" horiz-adv-x="727" d="M117 244v700q0 58 41.5 99.5t99.5 41.5h346v-1126q0 -57 -13 -94.5t-39.5 -56t-56.5 -25t-73 -6.5h-103q-43 0 -73 6.5t-56.5 25t-39.5 56t-13 94.5v66h15v-66q0 -54 12 -89.5t37 -52t51.5 -22.5t66.5 -6h103q40 0 67 6t51.5 22.5t37 52t12.5 89.5v143h-332 q-58 0 -99.5 41.5t-41.5 100.5zM131 244q0 -53 37.5 -91t89.5 -38h332v958h-332q-52 0 -89.5 -38t-37.5 -91v-700z" />
<glyph unicode="h" horiz-adv-x="724" d="M123 0v1454h14v-369h328q59 0 100 -41.5t41 -99.5v-944h-14v944q0 53 -37.5 91t-89.5 38h-328v-1073h-14z" />
<glyph unicode="i" horiz-adv-x="264" d="M123 1249v144h18v-144h-18zM125 0v1085h14v-1085h-14z" />
<glyph unicode="j" horiz-adv-x="260" d="M-6 -190q129 123 129 272v1003h14v-1003q0 -150 -135 -281zM121 1249v144h18v-144h-18z" />
<glyph unicode="k" horiz-adv-x="624" d="M123 0v1454h14v-842h182l244 473h17l-248 -479l276 -606h-16l-273 600h-182v-600h-14z" />
<glyph unicode="l" horiz-adv-x="260" d="M123 0v1454h14v-1454h-14z" />
<glyph unicode="m" horiz-adv-x="1153" d="M123 0v1085h770q59 0 100 -41.5t41 -99.5v-944h-14v944q0 53 -37.5 91t-89.5 38h-307v-1073h-15v1055q0 13 -1.5 15.5t-12.5 2.5h-420v-1073h-14z" />
<glyph unicode="n" horiz-adv-x="724" d="M123 0v1085h342q59 0 100 -41.5t41 -99.5v-944h-14v944q0 53 -37.5 91t-89.5 38h-328v-1073h-14z" />
<glyph unicode="o" horiz-adv-x="720" d="M117 182v721q0 57 13 94.5t39.5 56t56.5 25t73 6.5h123q43 0 73 -6.5t56.5 -25t39.5 -56t13 -94.5v-721q0 -57 -13 -94.5t-39.5 -56t-56.5 -25t-73 -6.5h-123q-43 0 -73 6.5t-56.5 25t-39.5 56t-13 94.5zM131 182q0 -54 12.5 -89.5t37 -52t51.5 -22.5t67 -6h123 q40 0 67 6t51.5 22.5t37 52t12.5 89.5v721q0 54 -12.5 89.5t-37 52t-51.5 22.5t-67 6h-123q-40 0 -67 -6t-51.5 -22.5t-37 -52t-12.5 -89.5v-721z" />
<glyph unicode="p" horiz-adv-x="727" d="M123 -225v1310h346q59 0 100 -41.5t41 -99.5v-803q0 -59 -41 -100t-100 -41h-104l-228 -2v-223h-14zM137 12h332q52 0 89.5 38t37.5 91v803q0 53 -37.5 91t-89.5 38h-332v-1061z" />
<glyph unicode="q" horiz-adv-x="727" d="M117 141v803q0 58 41.5 99.5t99.5 41.5h346v-1310h-14v225h-332q-58 0 -99.5 41t-41.5 100zM131 141q0 -53 37.5 -91t89.5 -38h332v1061h-332q-52 0 -89.5 -38t-37.5 -91v-803z" />
<glyph unicode="r" horiz-adv-x="464" d="M123 0v930q0 39 1 58t6.5 41.5t17 32t31.5 16.5t52 7h234v-12h-234q-24 0 -40 -2.5t-26.5 -11.5t-16 -17t-8 -28.5t-3 -35.5t-0.5 -48v-930h-14z" />
<glyph unicode="s" horiz-adv-x="630" d="M82 182v107h14v-107q0 -54 12.5 -89.5t37 -52t51.5 -22.5t67 -6h103q40 0 67 6t51.5 22.5t37 52t12.5 89.5v238q0 13 -2.5 24.5t-5.5 20.5t-11 18t-12.5 15t-16.5 13.5t-17.5 11t-20 10t-20 8.5l-22 8t-20.5 8l-147 57q-4 1 -21 7.5t-22.5 9t-21 9t-21.5 10.5t-18.5 12 t-18 14.5t-14 16.5t-12 20.5t-6.5 23.5t-3 27v139q0 57 13 94.5t39.5 56t56.5 25t73 6.5h92q43 0 73 -6.5t57 -25t40 -56t13 -94.5v-106h-15v106q0 54 -12.5 89.5t-37 52t-51.5 22.5t-67 6h-92q-40 0 -67 -6t-51.5 -22.5t-37 -52t-12.5 -89.5v-139q0 -12 2.5 -23.5t5 -20 t10 -17t12 -14t16 -13t16.5 -11t20 -10t20.5 -8.5t23 -9l22.5 -9l147 -58q1 -1 20.5 -8t23 -8.5l21 -9t22 -11t18.5 -12t18.5 -15t13.5 -16.5t12 -20t6 -23.5t3 -27.5v-238q0 -57 -13 -94.5t-39.5 -56t-56.5 -25t-73 -6.5h-103q-43 0 -73 6.5t-56.5 25t-39.5 56t-13 94.5z " />
<glyph unicode="t" horiz-adv-x="337" d="M33 1073v12h90v246h14v-246h185v-12h-185v-952q0 -56 18 -82.5t68 -26.5h109v-12h-109q-56 0 -78 29.5t-22 91.5v952h-90z" />
<glyph unicode="u" horiz-adv-x="718" d="M113 141v944h14v-944q0 -53 37.5 -91t89.5 -38h328v1073h14v-1085h-342q-58 0 -99.5 41t-41.5 100z" />
<glyph unicode="v" horiz-adv-x="647" d="M31 1085h14l242 -1073h73l242 1073h14l-243 -1085h-99z" />
<glyph unicode="w" horiz-adv-x="991" d="M31 1085h14l160 -1073h71l203 1073h33l201 -1073h71l162 1073h15l-162 -1085h-99l-202 1073h-6l-201 -1073h-98z" />
<glyph unicode="x" horiz-adv-x="575" d="M41 0l238 575l-238 510h14l234 -497l235 497h15l-240 -510l240 -575h-15l-235 563l-234 -563h-14z" />
<glyph unicode="y" horiz-adv-x="571" d="M-10 1085h14l217 -1073h125l180 1073h15l-224 -1335h-14l41 250h-135z" />
<glyph unicode="z" horiz-adv-x="575" d="M51 0v12l459 1061h-459v12h473v-12l-458 -1061h458v-12h-473z" />
<glyph unicode="{" horiz-adv-x="366" d="M20 614v13q1 0 13 9.5t15 12l15 12.5t16.5 16t14 17t14 20.5t10 22t7.5 26t2 28.5v440q0 95 33 149q9 15 32.5 43.5t42.5 50.5l19 21l10 -8q-72 -86 -90 -113q-33 -51 -33 -143v-440q0 -99 -110 -170q30 -20 50 -38.5t40 -54.5t20 -77v-469q0 -93 33 -144q8 -12 30.5 -40 t41.5 -50l18 -22l-10 -9q-74 82 -94 115q-33 54 -33 150v469q0 16 -3.5 32t-7.5 27.5t-14 25t-15 20.5t-18 18.5t-17 15t-18 14.5z" />
<glyph unicode="|" horiz-adv-x="507" d="M248 -123v1679h14v-1679h-14z" />
<glyph unicode="}" horiz-adv-x="366" d="M102 -274q73 85 91 112q32 50 32 144v469q0 94 111 170q-111 72 -111 170v440q0 93 -32 143q-8 12 -30.5 40.5t-41.5 50.5l-19 22l11 8q74 -82 94 -115q33 -54 33 -149v-440q0 -13 2.5 -26t5 -23t9 -21t10.5 -18.5t13 -17.5t13.5 -14.5t14.5 -13t13 -11.5t13.5 -10.5 t11.5 -8.5v-13q-1 -1 -12.5 -9.5t-15 -11.5t-15 -13t-16.5 -16t-14 -16.5t-13.5 -20.5t-10 -22t-7.5 -25.5t-2 -28.5v-469q0 -96 -33 -150q-9 -15 -32.5 -43.5t-42.5 -50.5l-19 -21z" />
<glyph unicode="~" horiz-adv-x="819" d="M236 698l4 115h14l311 -115l4 101h11l-5 -115h-14l-311 117l-2 -103h-12z" />
<glyph unicode="&#xa1;" horiz-adv-x="270" d="M127 0v348l4 615h8l4 -615v-348h-16zM127 1270v164h16v-164h-16z" />
<glyph unicode="&#xa2;" horiz-adv-x="690" d="M117 182v721q0 57 13 94.5t39.5 56t56.5 25t73 6.5h45v148h16v-148h52q43 0 73 -6.5t56.5 -25t39.5 -56t13 -94.5v-168h-14v168q0 54 -12.5 89.5t-37 52t-51.5 22.5t-67 6h-113q-40 0 -67 -6t-51.5 -22.5t-37 -52t-12.5 -89.5v-721q0 -54 12.5 -89.5t37 -52t51.5 -22.5 t67 -6h113q40 0 67 6t51.5 22.5t37 52t12.5 89.5v230h14v-230q0 -57 -13 -94.5t-39.5 -56t-56.5 -25t-73 -6.5h-52v-164h-16v164h-45q-43 0 -73 6.5t-56.5 25t-39.5 56t-13 94.5z" />
<glyph unicode="&#xa3;" horiz-adv-x="757" d="M41 0v12h78v635h-78v12h78v551q0 71 16.5 117.5t49.5 69t68.5 30t88.5 7.5h41q53 0 88.5 -7.5t68.5 -30t49.5 -69t16.5 -117.5v-249h-14v249q0 67 -15 110.5t-45 64.5t-64 28.5t-85 7.5h-41q-51 0 -85 -7.5t-64 -28.5t-45 -64.5t-15 -110.5v-551h354v-12h-354v-635h483 v-12h-575z" />
<glyph unicode="&#xa5;" horiz-adv-x="720" d="M25 1434h16l317 -801l320 801h16l-327 -820v-16h243v-12h-243v-154h243v-12h-243v-420h-15v420h-250v12h250v154h-250v12h250v16z" />
<glyph unicode="&#xa7;" horiz-adv-x="733" d="M98 725v225q0 52 41 105q-41 48 -41 133v22q0 71 16.5 117.5t49.5 69t69 30t89 7.5h243v-13h-243q-51 0 -85 -7.5t-64 -28.5t-45 -64.5t-15 -110.5v-22q0 -26 4.5 -47.5t9.5 -37t18 -29.5t20.5 -22t27.5 -18.5t28 -14t33 -13.5t33 -13l164 -55q7 -3 29.5 -11.5 t30.5 -11.5t27.5 -12t27 -16t22 -19t20.5 -24.5t13.5 -29.5t10.5 -38.5t3 -46.5v-225q0 -52 -43 -105q43 -46 43 -133v-43q0 -71 -16.5 -117.5t-49.5 -68.5t-68.5 -29.5t-88.5 -7.5h-306v12h306q51 0 85 7.5t64 28.5t45 64.5t15 110.5v43q0 26 -4.5 47.5t-9.5 37t-18 29.5 t-21 22t-27.5 18.5t-28.5 14t-33.5 13.5t-32.5 13l-163 55q-7 3 -29.5 11t-30.5 11.5t-27.5 12.5t-27.5 16t-22 18.5t-20.5 24.5t-14 30t-10.5 38.5t-3 46.5zM115 725q0 -26 4.5 -47.5t9 -37t18 -30t20 -22t27 -18t28 -14t33 -13.5t32.5 -13l164 -55q9 -3 35.5 -13.5 t38 -15.5t30 -15.5t31.5 -22.5q32 46 32 96v225q0 26 -4.5 47.5t-9 37t-18 30t-20 22t-27 18t-28 14t-33 13.5t-32.5 13l-163 55q-3 1 -23.5 8.5t-26 9.5t-22 9t-24.5 12t-19.5 13t-20.5 16q-32 -49 -32 -97v-225z" />
<glyph unicode="&#xa8;" horiz-adv-x="1024" d="M358 1229v102h19v-102h-19zM647 1229v102h19v-102h-19z" />
<glyph unicode="&#xa9;" horiz-adv-x="1042" d="M119 244v946q0 244 243 244h318q244 0 244 -244v-946q0 -244 -244 -244h-318q-243 0 -243 244zM131 244q0 -128 62 -181t169 -53h318q107 0 169 53t62 181v946q0 128 -62 180.5t-169 52.5h-318q-107 0 -169 -52.5t-62 -180.5v-946zM303 346v731q0 57 13 94t39.5 54.5 t55 23.5t70.5 6h82q42 0 70.5 -6t55 -23.5t39.5 -54.5t13 -94v-200h-14v200q0 53 -12 87.5t-36.5 51t-50.5 22t-65 5.5h-82q-36 0 -60.5 -4.5t-50.5 -20t-39.5 -51t-13.5 -90.5v-731q0 -98 41 -132t123 -34h82q39 0 65 5.5t50.5 22t36.5 51t12 87.5v234h14v-234 q0 -57 -13 -94t-39.5 -54.5t-55 -23.5t-70.5 -6h-82q-42 0 -70.5 6t-55 23.5t-39.5 54.5t-13 94z" />
<glyph unicode="&#xaa;" horiz-adv-x="477" d="M92 659v13h285v-13h-285zM92 866v246q0 44 23.5 64t60.5 20h186v129q0 60 -23.5 78t-72.5 18h-53q-48 0 -71 -18t-23 -78v-53h-15v53q0 68 27 88.5t82 20.5h53q55 0 83 -20.5t28 -88.5v-543h-201q-35 0 -59.5 23.5t-24.5 60.5zM106 866q0 -31 19.5 -51t50.5 -20h186v389 h-186q-70 0 -70 -72v-246z" />
<glyph unicode="&#xab;" horiz-adv-x="468" d="M41 563v8l184 310h15l-183 -310v-8l183 -309h-15zM205 563v8l184 310h14l-182 -310v-8l182 -309h-14z" />
<glyph unicode="&#xad;" horiz-adv-x="557" d="M66 604v14h426v-14h-426z" />
<glyph unicode="&#xae;" horiz-adv-x="755" d="M119 858v373q0 42 5 73.5t13 53t23 36t29 22.5t38.5 12t43.5 5t51 1h112q32 0 51 -1t43.5 -5t38.5 -12t29 -22.5t23 -36t13 -53t5 -73.5v-373q0 -42 -5 -73.5t-13 -53t-23 -36t-29 -22.5t-38.5 -12t-43.5 -5t-51 -1h-112q-32 0 -51 1t-43.5 5t-38.5 12t-29 22.5t-23 36 t-13 53t-5 73.5zM131 858q0 -54 9 -90.5t22.5 -56.5t41 -30t51.5 -12.5t67 -2.5h112q45 0 69.5 2.5t51.5 12.5t40 30t21.5 56t8.5 91v373q0 55 -8.5 91t-21.5 56t-40 30t-51.5 12.5t-69.5 2.5h-112q-43 0 -67 -2.5t-51.5 -12.5t-41 -30t-22.5 -56.5t-9 -90.5v-373zM276 788 v512h127q25 0 41 -4t29.5 -22.5t13.5 -52.5v-131q0 -59 -43 -76q43 -14 43 -72v-154h-14v154q0 68 -57 68h-125v-222h-15zM291 1022h125q57 0 57 68v131q0 38 -17.5 52.5t-52.5 14.5h-112v-266z" />
<glyph unicode="&#xaf;" horiz-adv-x="1024" d="M356 1264v12h312v-12h-312z" />
<glyph unicode="&#xb0;" horiz-adv-x="481" d="M82 1034v258q0 78 23.5 110t97.5 32h76q74 0 97 -32t23 -110v-258q0 -78 -23 -109.5t-97 -31.5h-76q-74 0 -97.5 31.5t-23.5 109.5zM96 1034q0 -72 19.5 -100.5t87.5 -28.5h76q68 0 87 28t19 101v258q0 73 -19 101t-87 28h-76q-68 0 -87.5 -28.5t-19.5 -100.5v-258z" />
<glyph unicode="&#xb1;" horiz-adv-x="614" d="M63 416v14h488v-14h-488zM63 825v15h236v245h14v-245h238v-15h-238v-247h-14v247h-236z" />
<glyph unicode="&#xb4;" horiz-adv-x="1024" d="M442 1198l115 133h25l-127 -133h-13z" />
<glyph unicode="&#xb6;" horiz-adv-x="841" d="M74 909v342q0 76 43.5 129.5t118.5 53.5h479v-1434h-17v1419h-288v-1419h-17v727h-157q-75 0 -118.5 53t-43.5 129z" />
<glyph unicode="&#xb7;" horiz-adv-x="348" d="M164 543v143h20v-143h-20z" />
<glyph unicode="&#xb8;" horiz-adv-x="1024" d="M442 -217l66 217h12l-53 -217h-25z" />
<glyph unicode="&#xba;" horiz-adv-x="505" d="M100 659v13h303v-13h-303zM102 891v434q0 65 28 87t81 22h84q53 0 80.5 -22t27.5 -87v-434q0 -65 -27.5 -87t-80.5 -22h-84q-53 0 -81 22t-28 87zM117 891q0 -60 24.5 -78t69.5 -18h84q45 0 69.5 18t24.5 78v434q0 60 -23 78t-71 18h-84q-45 0 -69.5 -18t-24.5 -78v-434z " />
<glyph unicode="&#xbb;" horiz-adv-x="468" d="M66 254l182 309v8l-182 310h14l184 -310v-8l-184 -309h-14zM229 254l183 309v8l-183 310h15l184 -310v-8l-184 -309h-15z" />
<glyph unicode="&#xbf;" horiz-adv-x="702" d="M92 223v146q0 42 9.5 77.5t21 58t34 45.5t36.5 33t42 28t37 24q68 47 89 72q49 57 49 159v160h14v-160q0 -42 -8 -75.5t-18 -54.5t-31.5 -43t-36 -33t-45.5 -31l-9 -6q-41 -28 -58.5 -41t-44.5 -38t-38 -46.5t-20 -54.5t-9 -74v-146q0 -67 15 -110.5t45 -64.5t64 -28.5 t85 -7.5h82q51 0 85 7.5t64 28.5t45 64.5t15 110.5v189h15v-189q0 -71 -16.5 -117.5t-49.5 -68.5t-69 -29.5t-89 -7.5h-82q-53 0 -88.5 7.5t-68.5 29.5t-49.5 68.5t-16.5 117.5zM406 1290v144h20v-144h-20z" />
<glyph unicode="&#xc0;" horiz-adv-x="710" d="M10 0l287 1434h117l286 -1434h-14l-80 401h-502l-79 -401h-15zM106 414h498l-203 1007h-92zM244 1679h24l115 -133h-12z" />
<glyph unicode="&#xc1;" horiz-adv-x="710" d="M10 0l287 1434h117l286 -1434h-14l-80 401h-502l-79 -401h-15zM106 414h498l-203 1007h-92zM328 1546l114 133h25l-127 -133h-12z" />
<glyph unicode="&#xc2;" horiz-adv-x="710" d="M10 0l287 1434h117l286 -1434h-14l-80 401h-502l-79 -401h-15zM106 414h498l-203 1007h-92zM205 1546l135 133h33l135 -133h-12l-140 125l-139 -125h-12z" />
<glyph unicode="&#xc3;" horiz-adv-x="710" d="M10 0l287 1434h117l286 -1434h-14l-80 401h-502l-79 -401h-15zM106 414h498l-203 1007h-92zM211 1573l4 102h12l256 -98l6 94h11l-4 -106h-13l-258 98l-4 -90h-10z" />
<glyph unicode="&#xc4;" horiz-adv-x="710" d="M10 0l287 1434h117l286 -1434h-14l-80 401h-502l-79 -401h-15zM106 414h498l-203 1007h-92zM203 1577v102h18v-102h-18zM492 1577v102h18v-102h-18z" />
<glyph unicode="&#xc5;" horiz-adv-x="710" d="M10 0l287 1434h117l286 -1434h-14l-80 401h-502l-79 -401h-15zM106 414h498l-203 1007h-92zM256 1610v24q0 84 92 84h19q92 0 92 -84v-24q0 -84 -92 -84h-19q-92 0 -92 84zM270 1610q0 -39 19 -55.5t59 -16.5h19q39 0 58 16.5t19 55.5v24q0 36 -18 54t-59 18h-19 q-42 0 -60 -18t-18 -54v-24z" />
<glyph unicode="&#xc6;" horiz-adv-x="1167" d="M41 0l491 1434h564v-13h-449v-682h428v-12h-428v-715h449v-12h-463v401h-438l-140 -401h-14zM199 414h434v1007h-90z" />
<glyph unicode="&#xc7;" horiz-adv-x="763" d="M119 223v987q0 71 16.5 117.5t49.5 69t68.5 30t88.5 7.5h102q53 0 89 -7.5t69 -30t49.5 -69t16.5 -117.5v-249h-15v249q0 67 -15 110.5t-45 64.5t-64 28.5t-85 7.5h-102q-51 0 -85 -7.5t-64 -28.5t-45 -64.5t-15 -110.5v-987q0 -67 15 -110.5t45 -64.5t64 -28.5t85 -7.5 h102q51 0 85 7.5t64 28.5t45 64.5t15 110.5v291h15v-291q0 -71 -16.5 -117.5t-49.5 -68.5t-69 -29.5t-89 -7.5h-12l-53 -217h-25l66 217h-78q-53 0 -88.5 7.5t-68.5 29.5t-49.5 68.5t-16.5 117.5z" />
<glyph unicode="&#xc8;" horiz-adv-x="661" d="M127 0v1434h463v-13h-449v-682h428v-12h-428v-715h449v-12h-463zM272 1679h25l115 -133h-13z" />
<glyph unicode="&#xc9;" horiz-adv-x="661" d="M127 0v1434h463v-13h-449v-682h428v-12h-428v-715h449v-12h-463zM313 1546l115 133h25l-127 -133h-13z" />
<glyph unicode="&#xca;" horiz-adv-x="661" d="M127 0v1434h463v-13h-449v-682h428v-12h-428v-715h449v-12h-463zM209 1546l135 133h33l135 -133h-12l-140 125l-139 -125h-12z" />
<glyph unicode="&#xcb;" horiz-adv-x="661" d="M127 0v1434h463v-13h-449v-682h428v-12h-428v-715h449v-12h-463zM203 1577v102h18v-102h-18zM492 1577v102h18v-102h-18z" />
<glyph unicode="&#xcc;" horiz-adv-x="270" d="M4 1679h25l114 -133h-12zM127 0v1434h14v-1434h-14z" />
<glyph unicode="&#xcd;" horiz-adv-x="270" d="M127 0v1434h14v-1434h-14zM127 1546l115 133h24l-127 -133h-12z" />
<glyph unicode="&#xce;" horiz-adv-x="270" d="M-16 1546l135 133h33l135 -133h-13l-139 125l-139 -125h-12zM127 0v1434h14v-1434h-14z" />
<glyph unicode="&#xcf;" horiz-adv-x="270" d="M-18 1577v102h18v-102h-18zM127 0v1434h14v-1434h-14zM270 1577v102h19v-102h-19z" />
<glyph unicode="&#xd0;" horiz-adv-x="761" d="M2 729v12h125v693h313q98 0 150.5 -42.5t52.5 -160.5v-1028q0 -118 -52.5 -160.5t-150.5 -42.5h-313v729h-125zM141 12h299q43 0 74 7.5t59 27t42 58.5t14 98v1028q0 59 -14 98t-42 58t-59 26.5t-74 7.5h-297l-2 -680h185v-12h-185v-717z" />
<glyph unicode="&#xd1;" horiz-adv-x="837" d="M127 0v1434h61l480 -1420h28v1420h15v-1434h-52l-481 1421h-37v-1421h-14zM274 1573l5 102h12l256 -98l6 94h10l-4 -106h-12l-258 98l-4 -90h-11z" />
<glyph unicode="&#xd2;" d="M119 223v987q0 71 16.5 117.5t49.5 69t68.5 30t88.5 7.5h113q53 0 88.5 -7.5t68.5 -30t49.5 -69t16.5 -117.5v-987q0 -71 -16.5 -117.5t-49.5 -68.5t-68.5 -29.5t-88.5 -7.5h-113q-53 0 -88.5 7.5t-68.5 29.5t-49.5 68.5t-16.5 117.5zM133 223q0 -67 15 -110.5t45 -64.5 t64 -28.5t85 -7.5h113q51 0 85 7.5t64 28.5t45 64.5t15 110.5v987q0 67 -15 110.5t-45 64.5t-64 28.5t-85 7.5h-113q-51 0 -85 -7.5t-64 -28.5t-45 -64.5t-15 -110.5v-987zM289 1679h24l115 -133h-12z" />
<glyph unicode="&#xd3;" d="M119 223v987q0 71 16.5 117.5t49.5 69t68.5 30t88.5 7.5h113q53 0 88.5 -7.5t68.5 -30t49.5 -69t16.5 -117.5v-987q0 -71 -16.5 -117.5t-49.5 -68.5t-68.5 -29.5t-88.5 -7.5h-113q-53 0 -88.5 7.5t-68.5 29.5t-49.5 68.5t-16.5 117.5zM133 223q0 -67 15 -110.5t45 -64.5 t64 -28.5t85 -7.5h113q51 0 85 7.5t64 28.5t45 64.5t15 110.5v987q0 67 -15 110.5t-45 64.5t-64 28.5t-85 7.5h-113q-51 0 -85 -7.5t-64 -28.5t-45 -64.5t-15 -110.5v-987zM371 1546l114 133h25l-127 -133h-12z" />
<glyph unicode="&#xd4;" d="M119 223v987q0 71 16.5 117.5t49.5 69t68.5 30t88.5 7.5h113q53 0 88.5 -7.5t68.5 -30t49.5 -69t16.5 -117.5v-987q0 -71 -16.5 -117.5t-49.5 -68.5t-68.5 -29.5t-88.5 -7.5h-113q-53 0 -88.5 7.5t-68.5 29.5t-49.5 68.5t-16.5 117.5zM133 223q0 -67 15 -110.5t45 -64.5 t64 -28.5t85 -7.5h113q51 0 85 7.5t64 28.5t45 64.5t15 110.5v987q0 67 -15 110.5t-45 64.5t-64 28.5t-85 7.5h-113q-51 0 -85 -7.5t-64 -28.5t-45 -64.5t-15 -110.5v-987zM248 1546l135 133h33l135 -133h-12l-140 125l-139 -125h-12z" />
<glyph unicode="&#xd5;" d="M119 223v987q0 71 16.5 117.5t49.5 69t68.5 30t88.5 7.5h113q53 0 88.5 -7.5t68.5 -30t49.5 -69t16.5 -117.5v-987q0 -71 -16.5 -117.5t-49.5 -68.5t-68.5 -29.5t-88.5 -7.5h-113q-53 0 -88.5 7.5t-68.5 29.5t-49.5 68.5t-16.5 117.5zM133 223q0 -67 15 -110.5t45 -64.5 t64 -28.5t85 -7.5h113q51 0 85 7.5t64 28.5t45 64.5t15 110.5v987q0 67 -15 110.5t-45 64.5t-64 28.5t-85 7.5h-113q-51 0 -85 -7.5t-64 -28.5t-45 -64.5t-15 -110.5v-987zM254 1573l4 102h12l256 -98l6 94h11l-4 -106h-13l-258 98l-4 -90h-10z" />
<glyph unicode="&#xd6;" d="M119 223v987q0 71 16.5 117.5t49.5 69t68.5 30t88.5 7.5h113q53 0 88.5 -7.5t68.5 -30t49.5 -69t16.5 -117.5v-987q0 -71 -16.5 -117.5t-49.5 -68.5t-68.5 -29.5t-88.5 -7.5h-113q-53 0 -88.5 7.5t-68.5 29.5t-49.5 68.5t-16.5 117.5zM133 223q0 -67 15 -110.5t45 -64.5 t64 -28.5t85 -7.5h113q51 0 85 7.5t64 28.5t45 64.5t15 110.5v987q0 67 -15 110.5t-45 64.5t-64 28.5t-85 7.5h-113q-51 0 -85 -7.5t-64 -28.5t-45 -64.5t-15 -110.5v-987zM246 1577v102h18v-102h-18zM535 1577v102h18v-102h-18z" />
<glyph unicode="&#xd7;" horiz-adv-x="573" d="M100 559l176 174l-174 176l11 11l174 -177l176 177l10 -11l-176 -176l174 -174l-10 -10l-174 174l-176 -174z" />
<glyph unicode="&#xd8;" d="M119 223v987q0 71 16.5 117.5t49.5 69t68.5 30t88.5 7.5h113q108 0 157 -37l37 114h17l-41 -127q53 -53 53 -174v-987q0 -71 -16.5 -117.5t-49.5 -68.5t-68.5 -29.5t-88.5 -7.5h-113q-111 0 -158 37l-41 -123h-16l43 135q-51 51 -51 174zM133 223q0 -113 43 -162 l432 1319q-46 41 -153 41h-113q-51 0 -85 -7.5t-64 -28.5t-45 -64.5t-15 -110.5v-987zM188 51q44 -39 154 -39h113q51 0 85 7.5t64 28.5t45 64.5t15 110.5v987q0 111 -46 160z" />
<glyph unicode="&#xd9;" d="M119 223v1211h14v-1211q0 -67 15 -110.5t45 -64.5t64 -28.5t85 -7.5h113q51 0 85 7.5t64 28.5t45 64.5t15 110.5v1211h14v-1211q0 -71 -16.5 -117.5t-49.5 -68.5t-68.5 -29.5t-88.5 -7.5h-113q-53 0 -88.5 7.5t-68.5 29.5t-49.5 68.5t-16.5 117.5zM289 1679h24l115 -133 h-12z" />
<glyph unicode="&#xda;" d="M119 223v1211h14v-1211q0 -67 15 -110.5t45 -64.5t64 -28.5t85 -7.5h113q51 0 85 7.5t64 28.5t45 64.5t15 110.5v1211h14v-1211q0 -71 -16.5 -117.5t-49.5 -68.5t-68.5 -29.5t-88.5 -7.5h-113q-53 0 -88.5 7.5t-68.5 29.5t-49.5 68.5t-16.5 117.5zM381 1546l115 133h24 l-127 -133h-12z" />
<glyph unicode="&#xdb;" d="M119 223v1211h14v-1211q0 -67 15 -110.5t45 -64.5t64 -28.5t85 -7.5h113q51 0 85 7.5t64 28.5t45 64.5t15 110.5v1211h14v-1211q0 -71 -16.5 -117.5t-49.5 -68.5t-68.5 -29.5t-88.5 -7.5h-113q-53 0 -88.5 7.5t-68.5 29.5t-49.5 68.5t-16.5 117.5zM248 1546l135 133h33 l135 -133h-12l-140 125l-139 -125h-12z" />
<glyph unicode="&#xdc;" d="M119 223v1211h14v-1211q0 -67 15 -110.5t45 -64.5t64 -28.5t85 -7.5h113q51 0 85 7.5t64 28.5t45 64.5t15 110.5v1211h14v-1211q0 -71 -16.5 -117.5t-49.5 -68.5t-68.5 -29.5t-88.5 -7.5h-113q-53 0 -88.5 7.5t-68.5 29.5t-49.5 68.5t-16.5 117.5zM246 1577v102h18v-102 h-18zM535 1577v102h18v-102h-18z" />
<glyph unicode="&#xdd;" horiz-adv-x="720" d="M25 1434h16l317 -801l320 801h16l-327 -820v-614h-15v614zM332 1546l114 133h25l-127 -133h-12z" />
<glyph unicode="&#xde;" horiz-adv-x="663" d="M127 0v1434h14v-277h289q43 0 73 -6.5t56.5 -25t39.5 -56t13 -94.5v-496q0 -57 -13 -94.5t-39.5 -56t-56.5 -25t-73 -6.5h-289v-297h-14zM141 309h289q40 0 67 6t51.5 22.5t37 52t12.5 89.5v496q0 54 -12.5 89.5t-37 52t-51.5 22.5t-67 6h-289v-836z" />
<glyph unicode="&#xdf;" horiz-adv-x="735" d="M20 1079v6h109v146q0 118 52.5 160.5t150.5 42.5h59q98 0 150.5 -42.5t52.5 -160.5v-242q0 -162 -113 -192q162 -18 162 -199v-395q0 -118 -52.5 -160.5t-150.5 -42.5h-194v12h194q43 0 74 7.5t59 27t42 58.5t14 98v395q0 58 -15.5 97t-45.5 58t-62 26t-76 7h-184v13h145 q43 0 74 7.5t59 26.5t42 58t14 98v242q0 59 -14 98t-42 58t-59 26.5t-74 7.5h-59q-43 0 -74 -7.5t-59 -26.5t-42 -58t-14 -98v-1231h-14v1073z" />
<glyph unicode="&#xe0;" horiz-adv-x="690" d="M96 141v394q0 58 41.5 99.5t100.5 41.5h315v227q0 54 -12.5 89.5t-37 52t-51.5 22.5t-67 6h-86q-40 0 -67 -6t-51.5 -22.5t-37 -52t-12.5 -89.5v-86h-14v86q0 57 13 94.5t39.5 56t56.5 25t73 6.5h86q43 0 73 -6.5t56.5 -25t39.5 -56t13 -94.5v-903h-329 q-59 0 -100.5 41.5t-41.5 99.5zM111 141q0 -53 37.5 -91t89.5 -38h315v652h-315q-52 0 -89.5 -38t-37.5 -91v-394zM276 1331h25l115 -133h-13z" />
<glyph unicode="&#xe1;" horiz-adv-x="690" d="M96 141v394q0 58 41.5 99.5t100.5 41.5h315v227q0 54 -12.5 89.5t-37 52t-51.5 22.5t-67 6h-86q-40 0 -67 -6t-51.5 -22.5t-37 -52t-12.5 -89.5v-86h-14v86q0 57 13 94.5t39.5 56t56.5 25t73 6.5h86q43 0 73 -6.5t56.5 -25t39.5 -56t13 -94.5v-903h-329 q-59 0 -100.5 41.5t-41.5 99.5zM111 141q0 -53 37.5 -91t89.5 -38h315v652h-315q-52 0 -89.5 -38t-37.5 -91v-394zM297 1198l115 133h24l-127 -133h-12z" />
<glyph unicode="&#xe2;" horiz-adv-x="690" d="M96 141v394q0 58 41.5 99.5t100.5 41.5h315v227q0 54 -12.5 89.5t-37 52t-51.5 22.5t-67 6h-86q-40 0 -67 -6t-51.5 -22.5t-37 -52t-12.5 -89.5v-86h-14v86q0 57 13 94.5t39.5 56t56.5 25t73 6.5h86q43 0 73 -6.5t56.5 -25t39.5 -56t13 -94.5v-903h-329 q-59 0 -100.5 41.5t-41.5 99.5zM111 141q0 -53 37.5 -91t89.5 -38h315v652h-315q-52 0 -89.5 -38t-37.5 -91v-394zM195 1198l135 133h32l136 -133h-13l-139 125l-139 -125h-12z" />
<glyph unicode="&#xe3;" horiz-adv-x="690" d="M96 141v394q0 58 41.5 99.5t100.5 41.5h315v227q0 54 -12.5 89.5t-37 52t-51.5 22.5t-67 6h-86q-40 0 -67 -6t-51.5 -22.5t-37 -52t-12.5 -89.5v-86h-14v86q0 57 13 94.5t39.5 56t56.5 25t73 6.5h86q43 0 73 -6.5t56.5 -25t39.5 -56t13 -94.5v-903h-329 q-59 0 -100.5 41.5t-41.5 99.5zM111 141q0 -53 37.5 -91t89.5 -38h315v652h-315q-52 0 -89.5 -38t-37.5 -91v-394zM201 1225l4 102h12l256 -98l6 94h10l-4 -106h-12l-258 98l-4 -90h-10z" />
<glyph unicode="&#xe4;" horiz-adv-x="690" d="M96 141v394q0 58 41.5 99.5t100.5 41.5h315v227q0 54 -12.5 89.5t-37 52t-51.5 22.5t-67 6h-86q-40 0 -67 -6t-51.5 -22.5t-37 -52t-12.5 -89.5v-86h-14v86q0 57 13 94.5t39.5 56t56.5 25t73 6.5h86q43 0 73 -6.5t56.5 -25t39.5 -56t13 -94.5v-903h-329 q-59 0 -100.5 41.5t-41.5 99.5zM111 141q0 -53 37.5 -91t89.5 -38h315v652h-315q-52 0 -89.5 -38t-37.5 -91v-394zM193 1229v102h18v-102h-18zM481 1229v102h19v-102h-19z" />
<glyph unicode="&#xe5;" horiz-adv-x="690" d="M96 141v394q0 58 41.5 99.5t100.5 41.5h315v227q0 54 -12.5 89.5t-37 52t-51.5 22.5t-67 6h-86q-40 0 -67 -6t-51.5 -22.5t-37 -52t-12.5 -89.5v-86h-14v86q0 57 13 94.5t39.5 56t56.5 25t73 6.5h86q43 0 73 -6.5t56.5 -25t39.5 -56t13 -94.5v-903h-329 q-59 0 -100.5 41.5t-41.5 99.5zM111 141q0 -53 37.5 -91t89.5 -38h315v652h-315q-52 0 -89.5 -38t-37.5 -91v-394zM233 1262v24q0 84 93 84h18q92 0 92 -84v-24q0 -84 -92 -84h-18q-93 0 -93 84zM248 1262q0 -39 19 -55.5t59 -16.5h18q40 0 59 16.5t19 55.5v24q0 36 -18 54 t-60 18h-18q-42 0 -60 -18t-18 -54v-24z" />
<glyph unicode="&#xe6;" horiz-adv-x="1146" d="M96 141v394q0 58 41.5 99.5t100.5 41.5h315v237q0 95 -43.5 127.5t-124.5 32.5h-86q-40 0 -67 -6t-51.5 -22.5t-37 -52t-12.5 -89.5v-86h-14v86q0 57 13 94.5t39.5 56t56.5 25t73 6.5h86q74 0 117 -23t57 -89q16 66 59 89t117 23h113q43 0 73 -6.5t56.5 -25t39.5 -56 t13 -94.5v-383h-463v-338q0 -54 12.5 -89.5t37 -52t51.5 -22.5t67 -6h115q40 0 67 6t51.5 22.5t37 52t12.5 89.5v127h14v-127q0 -57 -13 -94.5t-39.5 -56t-56.5 -25t-73 -6.5h-115q-36 0 -62.5 4.5t-51.5 16.5t-41 37t-23 63q-132 -121 -223 -121h-96q-59 0 -100.5 41.5 t-41.5 99.5zM111 141q0 -53 37.5 -91t89.5 -38h96q37 0 86.5 26t73 45t61.5 52q-2 14 -2 47v482h-315q-52 0 -89.5 -38t-37.5 -91v-394zM567 532h449v371q0 54 -12.5 89.5t-37 52t-51.5 22.5t-67 6h-113q-39 0 -65.5 -6t-51.5 -22t-37.5 -49t-13.5 -83v-381z" />
<glyph unicode="&#xe7;" horiz-adv-x="690" d="M117 182v721q0 57 13 94.5t39.5 56t56.5 25t73 6.5h113q43 0 73 -6.5t56.5 -25t39.5 -56t13 -94.5v-168h-14v168q0 54 -12.5 89.5t-37 52t-51.5 22.5t-67 6h-113q-40 0 -67 -6t-51.5 -22.5t-37 -52t-12.5 -89.5v-721q0 -54 12.5 -89.5t37 -52t51.5 -22.5t67 -6h113 q40 0 67 6t51.5 22.5t37 52t12.5 89.5v230h14v-230q0 -57 -13 -94.5t-39.5 -56t-56.5 -25t-73 -6.5h-33l-53 -217h-25l66 217h-68q-43 0 -73 6.5t-56.5 25t-39.5 56t-13 94.5z" />
<glyph unicode="&#xe8;" horiz-adv-x="710" d="M117 182v721q0 57 13 94.5t39.5 56t56.5 25t73 6.5h113q43 0 73 -6.5t56.5 -25t39.5 -56t13 -94.5v-362h-463v-359q0 -54 12.5 -89.5t37 -52t51.5 -22.5t67 -6h115q40 0 67 6t51.5 22.5t37 52t12.5 89.5v127h14v-127q0 -57 -13 -94.5t-39.5 -56t-56.5 -25t-73 -6.5h-115 q-43 0 -73 6.5t-56.5 25t-39.5 56t-13 94.5zM131 553h449v350q0 54 -12.5 89.5t-37 52t-51.5 22.5t-67 6h-113q-40 0 -67 -6t-51.5 -22.5t-37 -52t-12.5 -89.5v-350zM266 1331h25l115 -133h-13z" />
<glyph unicode="&#xe9;" horiz-adv-x="710" d="M117 182v721q0 57 13 94.5t39.5 56t56.5 25t73 6.5h113q43 0 73 -6.5t56.5 -25t39.5 -56t13 -94.5v-362h-463v-359q0 -54 12.5 -89.5t37 -52t51.5 -22.5t67 -6h115q40 0 67 6t51.5 22.5t37 52t12.5 89.5v127h14v-127q0 -57 -13 -94.5t-39.5 -56t-56.5 -25t-73 -6.5h-115 q-43 0 -73 6.5t-56.5 25t-39.5 56t-13 94.5zM131 553h449v350q0 54 -12.5 89.5t-37 52t-51.5 22.5t-67 6h-113q-40 0 -67 -6t-51.5 -22.5t-37 -52t-12.5 -89.5v-350zM307 1198l115 133h24l-127 -133h-12z" />
<glyph unicode="&#xea;" horiz-adv-x="710" d="M117 182v721q0 57 13 94.5t39.5 56t56.5 25t73 6.5h113q43 0 73 -6.5t56.5 -25t39.5 -56t13 -94.5v-362h-463v-359q0 -54 12.5 -89.5t37 -52t51.5 -22.5t67 -6h115q40 0 67 6t51.5 22.5t37 52t12.5 89.5v127h14v-127q0 -57 -13 -94.5t-39.5 -56t-56.5 -25t-73 -6.5h-115 q-43 0 -73 6.5t-56.5 25t-39.5 56t-13 94.5zM131 553h449v350q0 54 -12.5 89.5t-37 52t-51.5 22.5t-67 6h-113q-40 0 -67 -6t-51.5 -22.5t-37 -52t-12.5 -89.5v-350zM205 1198l135 133h33l135 -133h-12l-140 125l-139 -125h-12z" />
<glyph unicode="&#xeb;" horiz-adv-x="710" d="M117 182v721q0 57 13 94.5t39.5 56t56.5 25t73 6.5h113q43 0 73 -6.5t56.5 -25t39.5 -56t13 -94.5v-362h-463v-359q0 -54 12.5 -89.5t37 -52t51.5 -22.5t67 -6h115q40 0 67 6t51.5 22.5t37 52t12.5 89.5v127h14v-127q0 -57 -13 -94.5t-39.5 -56t-56.5 -25t-73 -6.5h-115 q-43 0 -73 6.5t-56.5 25t-39.5 56t-13 94.5zM131 553h449v350q0 54 -12.5 89.5t-37 52t-51.5 22.5t-67 6h-113q-40 0 -67 -6t-51.5 -22.5t-37 -52t-12.5 -89.5v-350zM203 1229v102h18v-102h-18zM492 1229v102h18v-102h-18z" />
<glyph unicode="&#xec;" horiz-adv-x="264" d="M2 1331h25l114 -133h-12zM125 0v1085h14v-1085h-14z" />
<glyph unicode="&#xed;" horiz-adv-x="264" d="M125 0v1085h14v-1085h-14zM125 1198l115 133h24l-127 -133h-12z" />
<glyph unicode="&#xee;" horiz-adv-x="264" d="M-18 1198l135 133h33l135 -133h-13l-139 125l-139 -125h-12zM125 0v1085h14v-1085h-14z" />
<glyph unicode="&#xef;" horiz-adv-x="264" d="M-20 1229v102h18v-102h-18zM125 0v1085h14v-1085h-14zM268 1229v102h19v-102h-19z" />
<glyph unicode="&#xf0;" horiz-adv-x="720" d="M117 182v762q0 58 41.5 99.5t99.5 41.5h332v23q0 103 -60 180l-114 -41l-6 13l110 38q-12 14 -29 29t-29 24.5t-35.5 27.5t-33.5 26l6 8q15 -12 44.5 -33t52 -39t39.5 -36l108 38l6 -12l-106 -39q61 -71 61 -184v-926q0 -57 -13 -94.5t-39.5 -56t-56.5 -25t-73 -6.5h-123 q-43 0 -73 6.5t-56.5 25t-39.5 56t-13 94.5zM131 182q0 -54 12.5 -89.5t37 -52t51.5 -22.5t67 -6h123q40 0 67 6t51.5 22.5t37 52t12.5 89.5v887l-332 4q-52 0 -89.5 -38t-37.5 -91v-762z" />
<glyph unicode="&#xf1;" horiz-adv-x="724" d="M123 0v1085h342q59 0 100 -41.5t41 -99.5v-944h-14v944q0 53 -37.5 91t-89.5 38h-328v-1073h-14zM217 1225l4 102h12l256 -98l7 94h10l-4 -106h-13l-258 98l-4 -90h-10z" />
<glyph unicode="&#xf2;" horiz-adv-x="720" d="M117 182v721q0 57 13 94.5t39.5 56t56.5 25t73 6.5h123q43 0 73 -6.5t56.5 -25t39.5 -56t13 -94.5v-721q0 -57 -13 -94.5t-39.5 -56t-56.5 -25t-73 -6.5h-123q-43 0 -73 6.5t-56.5 25t-39.5 56t-13 94.5zM131 182q0 -54 12.5 -89.5t37 -52t51.5 -22.5t67 -6h123 q40 0 67 6t51.5 22.5t37 52t12.5 89.5v721q0 54 -12.5 89.5t-37 52t-51.5 22.5t-67 6h-123q-40 0 -67 -6t-51.5 -22.5t-37 -52t-12.5 -89.5v-721zM270 1331h25l115 -133h-13z" />
<glyph unicode="&#xf3;" horiz-adv-x="720" d="M117 182v721q0 57 13 94.5t39.5 56t56.5 25t73 6.5h123q43 0 73 -6.5t56.5 -25t39.5 -56t13 -94.5v-721q0 -57 -13 -94.5t-39.5 -56t-56.5 -25t-73 -6.5h-123q-43 0 -73 6.5t-56.5 25t-39.5 56t-13 94.5zM131 182q0 -54 12.5 -89.5t37 -52t51.5 -22.5t67 -6h123 q40 0 67 6t51.5 22.5t37 52t12.5 89.5v721q0 54 -12.5 89.5t-37 52t-51.5 22.5t-67 6h-123q-40 0 -67 -6t-51.5 -22.5t-37 -52t-12.5 -89.5v-721zM332 1198l114 133h25l-127 -133h-12z" />
<glyph unicode="&#xf4;" horiz-adv-x="720" d="M117 182v721q0 57 13 94.5t39.5 56t56.5 25t73 6.5h123q43 0 73 -6.5t56.5 -25t39.5 -56t13 -94.5v-721q0 -57 -13 -94.5t-39.5 -56t-56.5 -25t-73 -6.5h-123q-43 0 -73 6.5t-56.5 25t-39.5 56t-13 94.5zM131 182q0 -54 12.5 -89.5t37 -52t51.5 -22.5t67 -6h123 q40 0 67 6t51.5 22.5t37 52t12.5 89.5v721q0 54 -12.5 89.5t-37 52t-51.5 22.5t-67 6h-123q-40 0 -67 -6t-51.5 -22.5t-37 -52t-12.5 -89.5v-721zM209 1198l135 133h33l135 -133h-12l-140 125l-139 -125h-12z" />
<glyph unicode="&#xf5;" horiz-adv-x="720" d="M117 182v721q0 57 13 94.5t39.5 56t56.5 25t73 6.5h123q43 0 73 -6.5t56.5 -25t39.5 -56t13 -94.5v-721q0 -57 -13 -94.5t-39.5 -56t-56.5 -25t-73 -6.5h-123q-43 0 -73 6.5t-56.5 25t-39.5 56t-13 94.5zM131 182q0 -54 12.5 -89.5t37 -52t51.5 -22.5t67 -6h123 q40 0 67 6t51.5 22.5t37 52t12.5 89.5v721q0 54 -12.5 89.5t-37 52t-51.5 22.5t-67 6h-123q-40 0 -67 -6t-51.5 -22.5t-37 -52t-12.5 -89.5v-721zM217 1225l4 102h12l256 -98l7 94h10l-4 -106h-13l-258 98l-4 -90h-10z" />
<glyph unicode="&#xf6;" horiz-adv-x="720" d="M117 182v721q0 57 13 94.5t39.5 56t56.5 25t73 6.5h123q43 0 73 -6.5t56.5 -25t39.5 -56t13 -94.5v-721q0 -57 -13 -94.5t-39.5 -56t-56.5 -25t-73 -6.5h-123q-43 0 -73 6.5t-56.5 25t-39.5 56t-13 94.5zM131 182q0 -54 12.5 -89.5t37 -52t51.5 -22.5t67 -6h123 q40 0 67 6t51.5 22.5t37 52t12.5 89.5v721q0 54 -12.5 89.5t-37 52t-51.5 22.5t-67 6h-123q-40 0 -67 -6t-51.5 -22.5t-37 -52t-12.5 -89.5v-721zM207 1229v102h18v-102h-18zM496 1229v102h18v-102h-18z" />
<glyph unicode="&#xf7;" horiz-adv-x="614" d="M63 727v14h488v-14h-488zM295 500v82h20v-82h-20zM295 885v82h20v-82h-20z" />
<glyph unicode="&#xf8;" horiz-adv-x="720" d="M117 182v721q0 57 13 94.5t39.5 56t56.5 25t73 6.5h123q50 0 90 -12l39 119h16l-41 -123q78 -38 78 -166v-721q0 -57 -13 -94.5t-39.5 -56t-56.5 -25t-73 -6.5h-123q-76 0 -115 20l-37 -106h-16l41 115q-55 42 -55 153zM131 182q0 -100 45 -139l332 1018q-38 12 -86 12 h-123q-40 0 -67 -6t-51.5 -22.5t-37 -52t-12.5 -89.5v-721zM190 35q37 -23 109 -23h123q40 0 67 6t51.5 22.5t37 52t12.5 89.5v721q0 119 -68 152z" />
<glyph unicode="&#xf9;" horiz-adv-x="718" d="M113 141v944h14v-944q0 -53 37.5 -91t89.5 -38h328v1073h14v-1085h-342q-58 0 -99.5 41t-41.5 100zM270 1331h25l115 -133h-13z" />
<glyph unicode="&#xfa;" horiz-adv-x="718" d="M113 141v944h14v-944q0 -53 37.5 -91t89.5 -38h328v1073h14v-1085h-342q-58 0 -99.5 41t-41.5 100zM332 1198l114 133h25l-127 -133h-12z" />
<glyph unicode="&#xfb;" horiz-adv-x="718" d="M113 141v944h14v-944q0 -53 37.5 -91t89.5 -38h328v1073h14v-1085h-342q-58 0 -99.5 41t-41.5 100zM203 1198l135 133h33l135 -133h-12l-140 125l-139 -125h-12z" />
<glyph unicode="&#xfc;" horiz-adv-x="718" d="M113 141v944h14v-944q0 -53 37.5 -91t89.5 -38h328v1073h14v-1085h-342q-58 0 -99.5 41t-41.5 100zM207 1229v102h18v-102h-18zM496 1229v102h18v-102h-18z" />
<glyph unicode="&#xfd;" horiz-adv-x="571" d="M-10 1085h14l217 -1073h125l180 1073h15l-224 -1335h-14l41 250h-135zM258 1198l115 133h24l-127 -133h-12z" />
<glyph unicode="&#xfe;" horiz-adv-x="727" d="M123 -225v1659h14v-349h332q59 0 100 -41.5t41 -99.5v-803q0 -59 -41 -100t-100 -41h-332v-225h-14zM137 12h332q52 0 89.5 38t37.5 91v803q0 53 -37.5 91t-89.5 38h-332v-1061z" />
<glyph unicode="&#xff;" horiz-adv-x="571" d="M-10 1085h14l217 -1073h125l180 1073h15l-224 -1335h-14l41 250h-135zM117 1229v102h18v-102h-18zM406 1229v102h18v-102h-18z" />
<glyph unicode="&#x152;" horiz-adv-x="1093" d="M119 223v987q0 71 16.5 117.5t49.5 69t68.5 30t88.5 7.5h700v-15h-448v-680h428v-12h-428v-713l448 -2v-12h-700q-53 0 -88.5 7.5t-68.5 29.5t-49.5 68.5t-16.5 117.5zM135 223q0 -66 15.5 -109.5t46 -64.5t63.5 -28t82 -7h238v1405h-238q-49 0 -82 -7t-63.5 -28 t-46 -64.5t-15.5 -109.5v-987z" />
<glyph unicode="&#x153;" horiz-adv-x="1183" d="M117 182v721q0 57 13 94.5t39.5 56t56.5 25t73 6.5h123q74 0 117 -23t57 -89q16 66 59 89t117 23h113q43 0 73 -6.5t56.5 -25t39.5 -56t13 -94.5v-362h-463v-359q0 -54 12.5 -89.5t37 -52t51.5 -22.5t67 -6h115q40 0 67 6t51.5 22.5t37 52t12.5 89.5v127h14v-127 q0 -57 -13 -94.5t-39.5 -56t-56.5 -25t-73 -6.5h-115q-73 0 -116.5 23t-59.5 88q-14 -65 -57.5 -88t-116.5 -23h-123q-43 0 -73 6.5t-56.5 25t-39.5 56t-13 94.5zM131 182q0 -54 12.5 -89.5t37 -52t51.5 -22.5t67 -6h123q39 0 65.5 5.5t51 21t37.5 48.5t14 83v12v721v10 q-3 96 -45.5 128t-122.5 32h-123q-40 0 -67 -6t-51.5 -22.5t-37 -52t-12.5 -89.5v-721zM604 553h449v350q0 54 -12.5 89.5t-37 52t-51.5 22.5t-67 6h-113q-40 0 -67 -6t-51.5 -22.5t-37 -52t-12.5 -89.5v-350z" />
<glyph unicode="&#x178;" horiz-adv-x="720" d="M25 1434h16l317 -801l320 801h16l-327 -820v-614h-15v614zM207 1577v102h18v-102h-18zM496 1577v102h18v-102h-18z" />
<glyph unicode="&#x2c6;" horiz-adv-x="1024" d="M360 1198l136 133h32l136 -133h-13l-139 125l-139 -125h-13z" />
<glyph unicode="&#x2dc;" horiz-adv-x="1024" d="M352 1225l4 102h13l256 -98l6 94h10l-4 -106h-12l-258 98l-5 -90h-10z" />
<glyph unicode="&#x2000;" horiz-adv-x="859" />
<glyph unicode="&#x2001;" horiz-adv-x="1718" />
<glyph unicode="&#x2002;" horiz-adv-x="859" />
<glyph unicode="&#x2003;" horiz-adv-x="1718" />
<glyph unicode="&#x2004;" horiz-adv-x="572" />
<glyph unicode="&#x2005;" horiz-adv-x="429" />
<glyph unicode="&#x2006;" horiz-adv-x="286" />
<glyph unicode="&#x2007;" horiz-adv-x="286" />
<glyph unicode="&#x2008;" horiz-adv-x="214" />
<glyph unicode="&#x2009;" horiz-adv-x="343" />
<glyph unicode="&#x200a;" horiz-adv-x="95" />
<glyph unicode="&#x2010;" horiz-adv-x="557" d="M66 604v14h426v-14h-426z" />
<glyph unicode="&#x2011;" horiz-adv-x="557" d="M66 604v14h426v-14h-426z" />
<glyph unicode="&#x2012;" horiz-adv-x="557" d="M66 604v14h426v-14h-426z" />
<glyph unicode="&#x2013;" horiz-adv-x="774" d="M41 604v14h692v-14h-692z" />
<glyph unicode="&#x2014;" horiz-adv-x="1081" d="M41 604v14h999v-14h-999z" />
<glyph unicode="&#x2018;" horiz-adv-x="272" d="M123 1071v143q0 143 61 224l6 -4q-57 -82 -57 -220h10v-143h-20z" />
<glyph unicode="&#x2019;" horiz-adv-x="272" d="M82 1075q57 82 57 219h-10v144h21v-144q0 -141 -62 -223z" />
<glyph unicode="&#x201a;" horiz-adv-x="272" d="M82 -219q57 82 57 219h-10v143h21v-143q0 -141 -62 -223z" />
<glyph unicode="&#x201c;" horiz-adv-x="436" d="M123 1071v143q0 143 61 224l6 -4q-57 -82 -57 -220h10v-143h-20zM287 1071v143q0 143 61 224l6 -4q-57 -82 -57 -220h10v-143h-20z" />
<glyph unicode="&#x201d;" horiz-adv-x="436" d="M82 1075q57 82 57 219h-10v144h21v-144q0 -141 -62 -223zM246 1075q57 82 57 219h-10v144h20v-144q0 -142 -61 -223z" />
<glyph unicode="&#x201e;" horiz-adv-x="436" d="M82 -219q57 82 57 219h-10v143h21v-143q0 -141 -62 -223zM246 -219q57 82 57 219h-10v143h20v-143q0 -142 -61 -223z" />
<glyph unicode="&#x2022;" horiz-adv-x="438" d="M131 686v88q0 50 12 67t60 17h35q47 0 58 -16.5t11 -67.5v-88q0 -51 -10.5 -66.5t-58.5 -15.5h-35q-48 0 -60 16t-12 66z" />
<glyph unicode="&#x2026;" horiz-adv-x="811" d="M125 0v143h20v-143h-20zM395 0v143h21v-143h-21zM666 0v143h20v-143h-20z" />
<glyph unicode="&#x202f;" horiz-adv-x="343" />
<glyph unicode="&#x2039;" horiz-adv-x="305" d="M41 563v8l184 310h15l-183 -310v-8l183 -309h-15z" />
<glyph unicode="&#x203a;" horiz-adv-x="305" d="M66 254l182 309v8l-182 310h14l184 -310v-8l-184 -309h-14z" />
<glyph unicode="&#x205f;" horiz-adv-x="429" />
<glyph unicode="&#x20ac;" horiz-adv-x="776" d="M41 606v12h78v213h-78v13h78v366q0 71 16.5 117.5t49.5 69t68.5 30t88.5 7.5h102q53 0 89 -7.5t69 -30t49.5 -69t16.5 -117.5v-168h-15v168q0 67 -15 110.5t-45 64.5t-64 28.5t-85 7.5h-102q-51 0 -85 -7.5t-64 -28.5t-45 -64.5t-15 -110.5v-366h436v-13h-436v-213h436 v-12h-436v-383q0 -67 15 -110.5t45 -64.5t64 -28.5t85 -7.5h102q51 0 85 7.5t64 28.5t45 64.5t15 110.5v209h15v-209q0 -71 -16.5 -117.5t-49.5 -68.5t-69 -29.5t-89 -7.5h-102q-53 0 -88.5 7.5t-68.5 29.5t-49.5 68.5t-16.5 117.5v383h-78z" />
<glyph unicode="&#x2122;" horiz-adv-x="933" d="M45 1423v11h322v-11h-156v-706h-12v706h-154zM436 717v717h39l158 -707h4l160 707h39v-717h-13v706h-16l-160 -706h-24l-158 706h-16v-706h-13z" />
<glyph unicode="&#x25fc;" horiz-adv-x="1085" d="M0 0v1085h1085v-1085h-1085z" />
</font>
</defs>
</svg>
